<?xml version="1.0" ?><svg style="enable-background:new 0 0 48 48;" version="1.1" viewBox="0 0 48 48" xml:space="preserve" xmlns="http://www.w3.org/2000/svg" xmlns:xlink="http://www.w3.org/1999/xlink"><g id="Padding__x26__Artboard"/><g id="Icons"><path d="M30.36646,10.95703H17.63354c-3.0498,0-5.53076,2.48047-5.53076,5.5293v0.86865h0.7002h4.26593   c0.20355-0.46887,0.66882-0.79816,1.21259-0.79816c0.7309,0,1.32343,0.59253,1.32343,1.32343s-0.59253,1.32343-1.32343,1.32343   c-0.55481,0-1.02649-0.34283-1.22321-0.82697h-4.25531h-0.7002v5.11206h0.7002h4.25824   c0.19995-0.47705,0.67059-0.81256,1.22028-0.81256c0.7309,0,1.32343,0.59253,1.32343,1.32343s-0.59253,1.32343-1.32343,1.32343   c-0.54968,0-1.02032-0.33551-1.22028-0.81256h-4.25824h-0.7002v5.09766h0.7002h4.25824   c0.19995-0.47705,0.67059-0.81256,1.22028-0.81256c0.7309,0,1.32343,0.59253,1.32343,1.32343   c0,0.73096-0.59253,1.32343-1.32343,1.32343c-0.54968,0-1.02032-0.33545-1.22028-0.81256h-4.25824h-0.7002v0.88281   c0,3.0498,2.48096,5.53027,5.53076,5.53027h12.73291c3.0498,0,5.53076-2.48047,5.53076-5.53027V16.48633   C35.89722,13.4375,33.41626,10.95703,30.36646,10.95703z M32.21606,29.46191v-1.11133c0-0.19336,0.15674-0.34961,0.3501-0.34961   s0.3501,0.15625,0.3501,0.34961v1.11133c0,0.19336-0.15674,0.34961-0.3501,0.34961S32.21606,29.65527,32.21606,29.46191z    M32.91626,25.58691c0,0.19336-0.15674,0.34961-0.3501,0.34961s-0.3501-0.15625-0.3501-0.34961v-7.00293   c0-0.19336,0.15674-0.34961,0.3501-0.34961s0.3501,0.15625,0.3501,0.34961V25.58691z" style="fill:#303030;"/></g></svg>